<svg width="153" height="151" viewBox="0 0 153 151" fill="none" xmlns="http://www.w3.org/2000/svg">
<rect width="153" height="151" rx="20" fill="#00FFA8"/>
<g clip-path="url(#clip0_3_32)">
<mask id="mask0_3_32" style="mask-type:luminance" maskUnits="userSpaceOnUse" x="25" y="25" width="103" height="101">
<path d="M25.5 25.5H127.5V125.5H25.5V25.5Z" fill="white" stroke="white"/>
</mask>
<g mask="url(#mask0_3_32)">
<path d="M78.0027 123.613C86.4012 118.926 92.1171 109.694 92.1171 99.0749V74.8621C92.1171 71.5488 89.4065 68.632 86.3169 68.632H86.022C84.0135 68.632 82.1879 69.8496 81.1346 71.6196C81.0223 68.1363 78.1432 65.1062 74.8709 65.1062H74.5478C72.343 65.1062 70.3065 66.4797 69.183 68.4337V68.1082C69.183 64.6107 66.374 61.7789 62.9053 61.7789H62.5822C60.321 61.7789 58.3409 62.9964 57.2314 64.8088L57.2455 46.7698C57.2455 43.5414 54.3663 40.8228 50.9678 40.8228H50.6447C47.1898 40.8228 44.3669 43.6547 44.3669 47.1521V89.3047C40.589 84.8021 33.1035 76.9295 29.1852 79.9171C24.6489 83.372 27.556 87.6339 27.556 87.6339C30.2244 92.4622 35.2382 100.873 38.8897 107.018C40.5329 109.779 41.9513 112.158 42.7097 113.461C44.9989 117.397 48.0745 120.597 51.6839 122.877" stroke="black" stroke-width="1.57036" stroke-miterlimit="10"/>
<path d="M57.2455 55.407H112.158C119.995 55.407 126.357 48.9928 126.357 41.0918C126.357 33.1908 119.995 26.7766 112.158 26.7766H40.8418C33.0052 26.7766 26.6432 33.1908 26.6432 41.0918C26.6432 48.9928 33.0052 55.407 40.8418 55.407H44.3669" stroke="black" stroke-width="1.57036" stroke-miterlimit="10"/>
<path d="M56.8062 122.897H59.3698V125.335H56.8062V122.897Z" fill="#E61E2A" stroke="black" stroke-width="1.00359"/>
<path d="M70.0921 125.339L70.1189 122.902L72.6821 122.931L72.6553 125.368L70.0921 125.339Z" fill="#E61E2A" stroke="black" stroke-width="1.00358"/>
<path d="M63.4913 122.897H66.0549V125.335H63.4913V122.897Z" fill="#E61E2A" stroke="black" stroke-width="1.00359"/>
<path d="M66.2618 40.7661L73.0733 47.7042L86.7382 33.9555" stroke="black" stroke-width="1.57036" stroke-miterlimit="10"/>
</g>
</g>
<defs>
<clipPath id="clip0_3_32">
<rect width="103" height="101" fill="white" transform="translate(25 25)"/>
</clipPath>
</defs>
</svg>
