<svg width="153" height="151" viewBox="0 0 153 151" fill="none" xmlns="http://www.w3.org/2000/svg">
<rect width="153" height="151" rx="20" fill="black"/>
<g clip-path="url(#clip0_2_37)">
<mask id="mask0_2_37" style="mask-type:luminance" maskUnits="userSpaceOnUse" x="25" y="25" width="103" height="101">
<path d="M128 25H25V125.98H128V25Z" fill="white"/>
</mask>
<g mask="url(#mask0_2_37)">
<path d="M104.46 49.4368H107.522V52.6155H104.46V49.4368Z" fill="#E61E2A"/>
<path d="M98.1281 49.4368H101.412V52.6155H98.1281V49.4368Z" fill="#E61E2A"/>
<path d="M110.568 52.6217L110.604 49.4434L113.887 49.4785L113.852 52.6568L110.568 52.6217Z" fill="#E61E2A"/>
<path d="M113.923 124.391H39.0909C32.2049 124.391 26.6212 118.917 26.6212 112.166V38.8145C26.6212 32.0635 32.2049 26.5893 39.0909 26.5893H113.923C120.809 26.5893 126.393 32.0635 126.393 38.8145V112.179C126.379 118.917 120.795 124.391 113.923 124.391Z" stroke="white" stroke-width="1.59086" stroke-miterlimit="10"/>
<path d="M26.6213 75.4902H42.8735H44.7579C45.7832 75.4902 46.3789 74.4307 45.894 73.5477C45.2428 72.3661 44.9934 70.9533 45.2705 69.4726C45.7278 67.0955 47.6537 65.153 50.0645 64.6505C54.1101 63.8219 57.657 66.8238 57.657 70.6409C57.657 71.6869 57.3938 72.6783 56.9088 73.5342C56.4239 74.4172 57.0337 75.4766 58.0451 75.4766H76.4724" stroke="white" stroke-width="1.59086" stroke-miterlimit="10"/>
<path d="M76.5003 124.391V108.457V106.61C76.5003 105.605 75.4196 105.021 74.519 105.496C73.3136 106.135 71.8727 106.379 70.3623 106.108C67.9377 105.659 65.9564 103.771 65.4438 101.408C64.5986 97.4413 67.6606 93.9639 71.554 93.9639C72.6209 93.9639 73.6321 94.222 74.5052 94.6974C75.4058 95.1728 76.4865 94.575 76.4865 93.5834V75.5174" stroke="white" stroke-width="1.59086" stroke-miterlimit="10"/>
<path d="M126.379 75.4902H110.127H108.242C107.217 75.4902 106.621 76.5497 107.106 77.4326C107.757 78.6143 108.007 80.027 107.73 81.5078C107.272 83.8849 105.347 85.8273 102.936 86.3298C98.8901 87.1585 95.3431 84.1565 95.3431 80.3395C95.3431 79.2935 95.6064 78.3021 96.0913 77.4462C96.5763 76.5632 95.9665 75.5037 94.955 75.5037H76.5277" stroke="white" stroke-width="1.59086" stroke-miterlimit="10"/>
<path d="M76.5001 26.5893V42.5228V44.3702C76.5001 45.3754 77.5808 45.9595 78.4814 45.4841C79.6867 44.8456 81.1277 44.6011 82.6381 44.8728C85.0627 45.3211 87.044 47.2092 87.5565 49.5728C88.4018 53.5391 85.3398 57.0164 81.4464 57.0164C80.3795 57.0164 79.3683 56.7583 78.4952 56.2829C77.5946 55.8075 76.5139 56.4053 76.5139 57.3969V75.4629" stroke="white" stroke-width="1.59086" stroke-miterlimit="10"/>
</g>
</g>
<defs>
<clipPath id="clip0_2_37">
<rect width="103" height="101" fill="white" transform="translate(25 25)"/>
</clipPath>
</defs>
</svg>
