<svg width="960" height="658" viewBox="0 0 960 658" fill="none" xmlns="http://www.w3.org/2000/svg">
<path d="M356.272 0.816895L760.644 95.541M356.272 0.816895L1.46289 95.541M356.272 0.816895L348.861 461.029M356.272 0.816895L958.893 286.719M356.272 0.816895L152.002 318.294M760.644 95.541L348.861 461.029M760.644 95.541L923.227 474.437M760.644 95.541L855.6 153.068M760.644 95.541H1.46289M760.644 95.541L958.893 286.719M760.644 95.541L152.002 318.294M348.861 461.029L715.251 593.816M348.861 461.029L1.46289 95.541M348.861 461.029L374.337 656.965M348.861 461.029L958.893 286.719M348.861 461.029L152.002 318.294M715.251 593.816L1.46289 95.541M715.251 593.816L374.337 656.965M715.251 593.816L923.227 474.437M715.251 593.816L958.893 286.719M715.251 593.816L152.002 318.294M1.46289 95.541L923.227 474.437M1.46289 95.541L152.002 318.294M1.46289 95.541L590.187 157.925L958.893 286.719M923.227 474.437L855.6 153.068M923.227 474.437L958.893 286.719M923.227 474.437L152.002 318.294M855.6 153.068L374.337 656.965M855.6 153.068L958.893 286.719M855.6 153.068L152.002 318.294M374.337 656.965L958.893 286.719M374.337 656.965L152.002 318.294M958.893 286.719L152.002 318.294" stroke="#DEDEDE"/>
</svg>
