<svg id="visual" viewBox="0 0 960 200" width="960" height="200" xmlns="http://www.w3.org/2000/svg" xmlns:xlink="http://www.w3.org/1999/xlink" version="1.1"><path d="M0 131L22.8 121C45.7 111 91.3 91 137 81.8C182.7 72.7 228.3 74.3 274 79C319.7 83.7 365.3 91.3 411.2 100.5C457 109.7 503 120.3 548.8 118.3C594.7 116.3 640.3 101.7 686 88.2C731.7 74.7 777.3 62.3 823 65.3C868.7 68.3 914.3 86.7 937.2 95.8L960 105L960 201L937.2 201C914.3 201 868.7 201 823 201C777.3 201 731.7 201 686 201C640.3 201 594.7 201 548.8 201C503 201 457 201 411.2 201C365.3 201 319.7 201 274 201C228.3 201 182.7 201 137 201C91.3 201 45.7 201 22.8 201L0 201Z" fill="#c7c7c7"></path><path d="M0 142L22.8 143.5C45.7 145 91.3 148 137 151.2C182.7 154.3 228.3 157.7 274 158.3C319.7 159 365.3 157 411.2 144.5C457 132 503 109 548.8 107.2C594.7 105.3 640.3 124.7 686 126.7C731.7 128.7 777.3 113.3 823 115.2C868.7 117 914.3 136 937.2 145.5L960 155L960 201L937.2 201C914.3 201 868.7 201 823 201C777.3 201 731.7 201 686 201C640.3 201 594.7 201 548.8 201C503 201 457 201 411.2 201C365.3 201 319.7 201 274 201C228.3 201 182.7 201 137 201C91.3 201 45.7 201 22.8 201L0 201Z" fill="#e3e3e3"></path><path d="M0 133L22.8 140.3C45.7 147.7 91.3 162.3 137 163.3C182.7 164.3 228.3 151.7 274 147.3C319.7 143 365.3 147 411.2 150.8C457 154.7 503 158.3 548.8 163.7C594.7 169 640.3 176 686 173.7C731.7 171.3 777.3 159.7 823 153.3C868.7 147 914.3 146 937.2 145.5L960 145L960 201L937.2 201C914.3 201 868.7 201 823 201C777.3 201 731.7 201 686 201C640.3 201 594.7 201 548.8 201C503 201 457 201 411.2 201C365.3 201 319.7 201 274 201C228.3 201 182.7 201 137 201C91.3 201 45.7 201 22.8 201L0 201Z" fill="#ffffff"></path></svg>