<svg id="visual" viewBox="0 0 900 200" width="900" height="200" xmlns="http://www.w3.org/2000/svg" xmlns:xlink="http://www.w3.org/1999/xlink" version="1.1"><path d="M0 79L16.7 73.5C33.3 68 66.7 57 100 58C133.3 59 166.7 72 200 74.2C233.3 76.3 266.7 67.7 300 68C333.3 68.3 366.7 77.7 400 83.2C433.3 88.7 466.7 90.3 500 88.8C533.3 87.3 566.7 82.7 600 76.2C633.3 69.7 666.7 61.3 700 54.7C733.3 48 766.7 43 800 43C833.3 43 866.7 48 883.3 50.5L900 53L900 201L883.3 201C866.7 201 833.3 201 800 201C766.7 201 733.3 201 700 201C666.7 201 633.3 201 600 201C566.7 201 533.3 201 500 201C466.7 201 433.3 201 400 201C366.7 201 333.3 201 300 201C266.7 201 233.3 201 200 201C166.7 201 133.3 201 100 201C66.7 201 33.3 201 16.7 201L0 201Z" fill="#333333"></path><path d="M0 87L16.7 84.8C33.3 82.7 66.7 78.3 100 75.2C133.3 72 166.7 70 200 73C233.3 76 266.7 84 300 89.3C333.3 94.7 366.7 97.3 400 97.7C433.3 98 466.7 96 500 96.2C533.3 96.3 566.7 98.7 600 103.5C633.3 108.3 666.7 115.7 700 115C733.3 114.3 766.7 105.7 800 97.3C833.3 89 866.7 81 883.3 77L900 73L900 201L883.3 201C866.7 201 833.3 201 800 201C766.7 201 733.3 201 700 201C666.7 201 633.3 201 600 201C566.7 201 533.3 201 500 201C466.7 201 433.3 201 400 201C366.7 201 333.3 201 300 201C266.7 201 233.3 201 200 201C166.7 201 133.3 201 100 201C66.7 201 33.3 201 16.7 201L0 201Z" fill="#1c1c1c"></path><path d="M0 113L16.7 113.5C33.3 114 66.7 115 100 115.7C133.3 116.3 166.7 116.7 200 120.8C233.3 125 266.7 133 300 130.8C333.3 128.7 366.7 116.3 400 114.5C433.3 112.7 466.7 121.3 500 127.7C533.3 134 566.7 138 600 136.5C633.3 135 666.7 128 700 125.3C733.3 122.7 766.7 124.3 800 121.3C833.3 118.3 866.7 110.7 883.3 106.8L900 103L900 201L883.3 201C866.7 201 833.3 201 800 201C766.7 201 733.3 201 700 201C666.7 201 633.3 201 600 201C566.7 201 533.3 201 500 201C466.7 201 433.3 201 400 201C366.7 201 333.3 201 300 201C266.7 201 233.3 201 200 201C166.7 201 133.3 201 100 201C66.7 201 33.3 201 16.7 201L0 201Z" fill="#0f0f0f"></path><path d="M0 173L16.7 172.8C33.3 172.7 66.7 172.3 100 172.3C133.3 172.3 166.7 172.7 200 172.3C233.3 172 266.7 171 300 170C333.3 169 366.7 168 400 163.2C433.3 158.3 466.7 149.7 500 150.7C533.3 151.7 566.7 162.3 600 163.7C633.3 165 666.7 157 700 155C733.3 153 766.7 157 800 156.2C833.3 155.3 866.7 149.7 883.3 146.8L900 144L900 201L883.3 201C866.7 201 833.3 201 800 201C766.7 201 733.3 201 700 201C666.7 201 633.3 201 600 201C566.7 201 533.3 201 500 201C466.7 201 433.3 201 400 201C366.7 201 333.3 201 300 201C266.7 201 233.3 201 200 201C166.7 201 133.3 201 100 201C66.7 201 33.3 201 16.7 201L0 201Z" fill="#101010"></path></svg>