<svg id="visual" viewBox="0 0 900 200" width="900" height="200" xmlns="http://www.w3.org/2000/svg" xmlns:xlink="http://www.w3.org/1999/xlink" version="1.1"><path d="M0 62L16.7 67.7C33.3 73.3 66.7 84.7 100 89.5C133.3 94.3 166.7 92.7 200 87.5C233.3 82.3 266.7 73.7 300 64.7C333.3 55.7 366.7 46.3 400 45.5C433.3 44.7 466.7 52.3 500 52.3C533.3 52.3 566.7 44.7 600 41.8C633.3 39 666.7 41 700 49.2C733.3 57.3 766.7 71.7 800 71C833.3 70.3 866.7 54.7 883.3 46.8L900 39L900 201L883.3 201C866.7 201 833.3 201 800 201C766.7 201 733.3 201 700 201C666.7 201 633.3 201 600 201C566.7 201 533.3 201 500 201C466.7 201 433.3 201 400 201C366.7 201 333.3 201 300 201C266.7 201 233.3 201 200 201C166.7 201 133.3 201 100 201C66.7 201 33.3 201 16.7 201L0 201Z" fill="#f6f6f6"></path><path d="M0 80L16.7 79.5C33.3 79 66.7 78 100 83.5C133.3 89 166.7 101 200 99.2C233.3 97.3 266.7 81.7 300 74.7C333.3 67.7 366.7 69.3 400 68.7C433.3 68 466.7 65 500 72.3C533.3 79.7 566.7 97.3 600 106.2C633.3 115 666.7 115 700 113.7C733.3 112.3 766.7 109.7 800 105.7C833.3 101.7 866.7 96.3 883.3 93.7L900 91L900 201L883.3 201C866.7 201 833.3 201 800 201C766.7 201 733.3 201 700 201C666.7 201 633.3 201 600 201C566.7 201 533.3 201 500 201C466.7 201 433.3 201 400 201C366.7 201 333.3 201 300 201C266.7 201 233.3 201 200 201C166.7 201 133.3 201 100 201C66.7 201 33.3 201 16.7 201L0 201Z" fill="#f3f3f3"></path><path d="M0 97L16.7 101C33.3 105 66.7 113 100 112.3C133.3 111.7 166.7 102.3 200 100.7C233.3 99 266.7 105 300 107.2C333.3 109.3 366.7 107.7 400 107.3C433.3 107 466.7 108 500 107.2C533.3 106.3 566.7 103.7 600 104.7C633.3 105.7 666.7 110.3 700 114C733.3 117.7 766.7 120.3 800 118.8C833.3 117.3 866.7 111.7 883.3 108.8L900 106L900 201L883.3 201C866.7 201 833.3 201 800 201C766.7 201 733.3 201 700 201C666.7 201 633.3 201 600 201C566.7 201 533.3 201 500 201C466.7 201 433.3 201 400 201C366.7 201 333.3 201 300 201C266.7 201 233.3 201 200 201C166.7 201 133.3 201 100 201C66.7 201 33.3 201 16.7 201L0 201Z" fill="#f1f1f1"></path><path d="M0 123L16.7 125.8C33.3 128.7 66.7 134.3 100 134.2C133.3 134 166.7 128 200 128.5C233.3 129 266.7 136 300 138.8C333.3 141.7 366.7 140.3 400 137.2C433.3 134 466.7 129 500 126.5C533.3 124 566.7 124 600 130C633.3 136 666.7 148 700 148C733.3 148 766.7 136 800 131.5C833.3 127 866.7 130 883.3 131.5L900 133L900 201L883.3 201C866.7 201 833.3 201 800 201C766.7 201 733.3 201 700 201C666.7 201 633.3 201 600 201C566.7 201 533.3 201 500 201C466.7 201 433.3 201 400 201C366.7 201 333.3 201 300 201C266.7 201 233.3 201 200 201C166.7 201 133.3 201 100 201C66.7 201 33.3 201 16.7 201L0 201Z" fill="#e9e9e9"></path><path d="M0 158L16.7 161.8C33.3 165.7 66.7 173.3 100 173.7C133.3 174 166.7 167 200 163.3C233.3 159.7 266.7 159.3 300 159C333.3 158.7 366.7 158.3 400 159C433.3 159.7 466.7 161.3 500 160.8C533.3 160.3 566.7 157.7 600 157C633.3 156.3 666.7 157.7 700 158.7C733.3 159.7 766.7 160.3 800 159C833.3 157.7 866.7 154.3 883.3 152.7L900 151L900 201L883.3 201C866.7 201 833.3 201 800 201C766.7 201 733.3 201 700 201C666.7 201 633.3 201 600 201C566.7 201 533.3 201 500 201C466.7 201 433.3 201 400 201C366.7 201 333.3 201 300 201C266.7 201 233.3 201 200 201C166.7 201 133.3 201 100 201C66.7 201 33.3 201 16.7 201L0 201Z" fill="#e1e1e1"></path></svg>