<svg width="414" height="535" viewBox="0 0 414 535" fill="none" xmlns="http://www.w3.org/2000/svg">
<path d="M2 522V41.7289C2 35.6228 6.97335 30.6852 13.0793 30.7292L134.49 31.6047C137.38 31.6255 140.162 30.5081 142.235 28.4939L166.298 5.11104C168.351 3.11603 171.101 2 173.964 2H401C407.075 2 412 6.92486 412 13V492.777C412 498.883 407.027 503.821 400.921 503.777L279.564 502.902C276.642 502.881 273.832 504.023 271.753 506.076L247.714 529.825C245.655 531.859 242.877 533 239.983 533H13C6.92487 533 2 528.075 2 522Z" stroke="#00FFA8" stroke-width="2" stroke-linejoin="round"/>
</svg>
